<svg version="1.2" xmlns="http://www.w3.org/2000/svg" viewBox="0 0 1446 1446" width="1446" height="1446"><defs><clipPath clipPathUnits="userSpaceOnUse" id="cp1"><path d="m698 1395.99c-386 0-698-312-698-697.99 0-386 312-698 698-698 385.99 0 697.99 312 697.99 698 0 385.99-312 697.99-697.99 697.99z"/></clipPath><clipPath clipPathUnits="userSpaceOnUse" id="cp2"><path d="m404.78 224.68c0-45.84 37.16-83 83-83h421c45.84 0 83 37.16 83 83v946.46c0 45.84-37.16 83-83 83h-421c-45.84 0-83-37.16-83-83z"/></clipPath><clipPath clipPathUnits="userSpaceOnUse" id="cp3"><path d="m424.67 270.86h546.65v925.11h-546.65z"/></clipPath><clipPath clipPathUnits="userSpaceOnUse" id="cp4"><path d="m692.74 675.6c-78.48 0-141.92-29.37-141.92-65.71 0-36.33 63.44-65.7 141.92-65.7 78.48 0 141.92 29.37 141.92 65.7 0 36.34-63.44 65.71-141.92 65.71z"/></clipPath><clipPath clipPathUnits="userSpaceOnUse" id="cp5"><path d="m684.86 665.09c-30.52 0-55.19-24.67-55.19-55.2 0-30.52 24.67-55.19 55.19-55.19 30.52 0 55.19 24.67 55.19 55.19 0 30.53-24.67 55.2-55.19 55.2z"/></clipPath></defs><style>.a{fill:#ca1515}.b{fill:none;stroke:#fff;stroke-width:83.3}.c{fill:none;stroke:#000;stroke-width:33.3}.d{fill:#fff;stroke:#000;stroke-width:20.8}.e{fill:#fff}.f{fill:#d8d8d8}.g{fill:#472b2b}.h{fill:none;stroke:#2e1e1e;stroke-width:16.7}</style><path fill-rule="evenodd" class="a" d="m698 1396c-386 0-698-312-698-698 0-386 312-698 698-698 386 0 698 312 698 698 0 386-312 698-698 698z"/><g clip-path="url(#cp1)"><path fill-rule="evenodd" class="b" d="m698 1396c-386 0-698-312-698-698 0-386 312-698 698-698 386 0 698 312 698 698 0 386-312 698-698 698z"/></g><path class="a" d="m404.8 224.7c0-45.9 37.1-83 83-83h421c45.8 0 83 37.1 83 83v946.4c0 45.9-37.2 83-83 83h-421c-45.9 0-83-37.1-83-83z"/><g clip-path="url(#cp2)"><path fill-rule="evenodd" class="c" d="m404.8 224.7c0-45.9 37.1-83 83-83h421c45.8 0 83 37.1 83 83v946.4c0 45.9-37.2 83-83 83h-421c-45.9 0-83-37.1-83-83z"/></g><path  d="m556.3 162.7c0-11.6 9.4-21 21-21h251.5c11.6 0 21 9.4 21 21v19.5c0 11.6-9.4 21-21 21h-251.5c-11.6 0-21-9.4-21-21z"/><path  d="m411.9 279c6.5 0 11.8 5.3 11.8 11.8v56.8c0 6.5-5.3 11.8-11.8 11.8-6.6 0-11.9-5.3-11.9-11.8v-56.8c0-6.5 5.3-11.8 11.9-11.8z"/><path  d="m411.9 468.3c6.5 0 11.8 5.3 11.8 11.9v56.8c0 6.5-5.3 11.8-11.8 11.8-6.6 0-11.9-5.3-11.9-11.8v-56.8c0-6.6 5.3-11.9 11.9-11.9z"/><path  d="m411.9 387.8c6.5 0 11.8 5.3 11.8 11.9v56.8c0 6.5-5.3 11.8-11.8 11.8-6.6 0-11.9-5.3-11.9-11.8v-56.8c0-6.6 5.3-11.9 11.9-11.9z"/><g clip-path="url(#cp3)"><path fill-rule="evenodd" class="d" d="m497 988.1v-551.9h178.8q101.6 0 132.5 8.3 47.4 12.4 79.4 54 32 41.6 32 107.5 0 50.8-18.4 85.4-18.5 34.7-46.9 54.4-28.4 19.8-57.8 26.2-39.9 7.9-115.5 7.9h-72.7v208.2zm111.4-458.5v156.6h61q65.9 0 88.1-8.7 22.2-8.6 34.8-27.1 12.6-18.4 12.6-42.9 0-30.1-17.7-49.7-17.7-19.6-44.8-24.5-19.9-3.7-80.1-3.7z"/></g><path class="e" d="m524.5 524.6c0-18.2 14.8-33 33-33h270.4c18.3 0 33 14.8 33 33v154.8c0 18.2-14.7 33-33 33h-270.4c-18.2 0-33-14.8-33-33z"/><path fill-rule="evenodd" class="f" d="m687.5 496.9l105.1 210.2h-210.2z"/><path fill-rule="evenodd" class="e" d="m692.7 675.6c-78.4 0-141.9-29.4-141.9-65.7 0-36.3 63.5-65.7 141.9-65.7 78.5 0 142 29.4 142 65.7 0 36.3-63.5 65.7-142 65.7z"/><g clip-path="url(#cp4)"><path fill-rule="evenodd" class="c" d="m692.7 675.6c-78.4 0-141.9-29.4-141.9-65.7 0-36.3 63.5-65.7 141.9-65.7 78.5 0 142 29.4 142 65.7 0 36.3-63.5 65.7-142 65.7z"/></g><path fill-rule="evenodd" class="g" d="m684.9 665.1c-30.6 0-55.2-24.7-55.2-55.2 0-30.5 24.6-55.2 55.2-55.2 30.5 0 55.1 24.7 55.1 55.2 0 30.5-24.6 55.2-55.1 55.2z"/><g clip-path="url(#cp5)"><path fill-rule="evenodd" class="h" d="m684.9 665.1c-30.6 0-55.2-24.7-55.2-55.2 0-30.5 24.6-55.2 55.2-55.2 30.5 0 55.1 24.7 55.1 55.2 0 30.5-24.6 55.2-55.1 55.2z"/></g></svg>